<?xml version="1.0" encoding="UTF-8" standalone="no"?>
<svg width="1120px" height="840px" viewBox="0 0 1120 840" version="1.1" xmlns="http://www.w3.org/2000/svg" xmlns:xlink="http://www.w3.org/1999/xlink">
    <!-- Generator: Sketch 3.7.2 (28276) - http://www.bohemiancoding.com/sketch -->
    <title>Startseite</title>
    <desc>Created with Sketch.</desc>
    <defs></defs>
    <g id="Page-1" stroke="none" stroke-width="1" fill="none" fill-rule="evenodd">
        <g id="Startseite" fill="#FFFFFF">
            <polygon id="Triangle-9-Copy-3" transform="translate(420.000000, 630.000000) rotate(-180.000000) translate(-420.000000, -630.000000) " points="420 560 560 700 280 700"></polygon>
            <polygon id="Triangle-9-Copy-4" transform="translate(420.000000, 350.000000) rotate(-180.000000) translate(-420.000000, -350.000000) " points="420 280 560 420 280 420"></polygon>
            <polygon id="Triangle-9-Copy-5" transform="translate(700.000000, 70.000000) rotate(-180.000000) translate(-700.000000, -70.000000) " points="700 0 840 140 560 140"></polygon>
            <polygon id="Triangle-9-Copy-2" transform="translate(910.000000, 140.000000) rotate(-270.000000) translate(-910.000000, -140.000000) " points="910 70 1050 210 770 210"></polygon>
            <polygon id="Triangle-9-Copy" transform="translate(1050.000000, 140.000000) rotate(-90.000000) translate(-1050.000000, -140.000000) " points="1050 70 1190 210 910 210"></polygon>
            <polygon id="Triangle-9-Copy-6" transform="translate(210.000000, 420.000000) rotate(-90.000000) translate(-210.000000, -420.000000) " points="210 350 350 490 70 490"></polygon>
            <polygon id="Triangle-10-Copy-2" transform="translate(700.000000, 420.000000) rotate(-180.000000) translate(-700.000000, -420.000000) " points="840 280 840 560 560 560"></polygon>
            <polygon id="Triangle-10-Copy-3" transform="translate(140.000000, 700.000000) rotate(-180.000000) translate(-140.000000, -700.000000) " points="280 560 280 840 0 840"></polygon>
            <polygon id="Triangle-10-Copy" transform="translate(140.000000, 140.000000) rotate(-90.000000) translate(-140.000000, -140.000000) " points="280 0 280 280 0 280"></polygon>
        </g>
    </g>
</svg>