<?xml version="1.0" encoding="UTF-8" standalone="no"?>
<svg width="840px" height="700px" viewBox="0 0 840 700" version="1.1" xmlns="http://www.w3.org/2000/svg" xmlns:xlink="http://www.w3.org/1999/xlink">
    <!-- Generator: Sketch 3.7.2 (28276) - http://www.bohemiancoding.com/sketch -->
    <title>Desktop</title>
    <desc>Created with Sketch.</desc>
    <defs></defs>
    <g id="Page-1" stroke="none" stroke-width="1" fill="none" fill-rule="evenodd">
        <g id="Desktop" fill="#FFFFFF">
            <g id="Group">
                <polygon id="Triangle-9" points="140 140 280 280 0 280"></polygon>
                <polygon id="Triangle-9-Copy-3" transform="translate(140.000000, 630.000000) rotate(-180.000000) translate(-140.000000, -630.000000) " points="140 560 280 700 0 700"></polygon>
                <polygon id="Triangle-9-Copy-2" transform="translate(350.000000, 420.000000) rotate(-270.000000) translate(-350.000000, -420.000000) " points="350 350 490 490 210 490"></polygon>
                <polygon id="Triangle-9-Copy" transform="translate(490.000000, 420.000000) rotate(-90.000000) translate(-490.000000, -420.000000) " points="490 350 630 490 350 490"></polygon>
                <polygon id="Triangle-10" transform="translate(700.000000, 140.000000) rotate(-90.000000) translate(-700.000000, -140.000000) " points="840 0 840 280 560 280"></polygon>
                <polygon id="Triangle-10-Copy-2" transform="translate(700.000000, 420.000000) rotate(-90.000000) translate(-700.000000, -420.000000) " points="840 280 840 560 560 560"></polygon>
                <polygon id="Triangle-10-Copy" transform="translate(420.000000, 140.000000) rotate(-90.000000) translate(-420.000000, -140.000000) " points="560 0 560 280 280 280"></polygon>
            </g>
        </g>
    </g>
</svg>