<?xml version="1.0" encoding="utf-8"?>
<!-- Generator: Adobe Illustrator 19.2.1, SVG Export Plug-In . SVG Version: 6.00 Build 0)  -->
<svg version="1.1" id="Ebene_1" xmlns="http://www.w3.org/2000/svg" xmlns:xlink="http://www.w3.org/1999/xlink" x="0px" y="0px"
	 viewBox="0 0 16 16" style="enable-background:new 0 0 16 16;" xml:space="preserve">
<style type="text/css">
	.st0{fill:#A26932;}
	.st1{fill:#9F632B;}
	.st2{fill:#9E632A;}
</style>
<path class="st0" d="M16,11c-0.5,0-1,0-1.9,0c0-1.9,0-3.8-0.2-5.7c0-0.4-0.6-0.9-1-1.3c-0.3-0.3-0.7-0.7-1-1c-0.3-0.3-0.5-0.9-0.8-1
	C9.3,2,7.3,2,5,2c0-0.8,0-1.4,0-2c3.7,0,7.3,0,11,0C16,3.7,16,7.3,16,11z"/>
<path class="st1" d="M9,8c-0.7,0.7-1.3,1.3-2,2C6.7,9.7,6.3,9.3,6,9c0.7-0.7,1.3-1.3,2-2C8.3,7.3,8.7,7.7,9,8z"/>
<path class="st2" d="M2,15c-0.3-0.3-0.7-0.7-1-1c0.3-0.3,0.7-0.7,1-1c0.3,0.3,0.7,0.7,1,1C2.7,14.3,2.3,14.7,2,15z"/>
<path class="st2" d="M3,14c-0.3-0.3-0.7-0.7-1-1c0.3-0.3,0.7-0.7,1-1c0.3,0.3,0.7,0.7,1,1C3.7,13.3,3.3,13.7,3,14z"/>
<path class="st2" d="M4,13c-0.3-0.3-0.7-0.7-1-1c0.3-0.3,0.7-0.7,1-1c0.3,0.3,0.7,0.7,1,1C4.7,12.3,4.3,12.7,4,13z"/>
<path class="st2" d="M5,12c-0.3-0.3-0.7-0.7-1-1c0.3-0.3,0.7-0.7,1-1c0.3,0.3,0.7,0.7,1,1C5.7,11.3,5.3,11.7,5,12z"/>
<path class="st2" d="M6,11c-0.3-0.3-0.7-0.7-1-1c0.3-0.3,0.7-0.7,1-1c0.3,0.3,0.7,0.7,1,1C6.7,10.3,6.3,10.7,6,11z"/>
<path class="st2" d="M9,8C8.7,7.7,8.3,7.3,8,7c0.3-0.3,0.7-0.7,1-1c0.3,0.3,0.7,0.7,1,1C9.7,7.3,9.3,7.7,9,8z"/>
<path class="st2" d="M10,7C9.7,6.7,9.3,6.3,9,6c0.3-0.3,0.7-0.7,1-1c0.3,0.3,0.7,0.7,1,1C10.7,6.3,10.3,6.7,10,7z"/>
<path class="st2" d="M12,5c-0.3,0.3-0.7,0.7-1,1c-0.3-0.3-0.7-0.7-1-1c0.3-0.3,0.7-0.7,1-1C11.3,4.3,11.7,4.7,12,5z"/>
<path class="st2" d="M12,5c-0.3-0.3-0.7-0.7-1-1c0.3-0.3,0.7-0.7,1-1c0.3,0.3,0.7,0.7,1,1C12.7,4.3,12.3,4.7,12,5z"/>
</svg>
