<?xml version="1.0" encoding="utf-8"?>
<!-- Generator: Adobe Illustrator 19.2.1, SVG Export Plug-In . SVG Version: 6.00 Build 0)  -->
<svg version="1.1" id="Ebene_1" xmlns="http://www.w3.org/2000/svg" xmlns:xlink="http://www.w3.org/1999/xlink" x="0px" y="0px"
	 viewBox="0 0 330 330" style="enable-background:new 0 0 330 330;" xml:space="preserve">
<style type="text/css">
	.st0{fill:#5C5C5C;}
	.st1{fill:#FEFEFE;}
</style>
<g>
	<path class="st0" d="M1,331C1,221.1,1,111.1,1,1.1c109.8,0,219.7,0,329.8,0c0,109.9,0,219.9,0,329.9C221,331,111,331,1,331z
		 M232.8,20c-2.4,0-4.2,0-6,0c-10.7,0-21.3-0.4-32,0.1c-8.5,0.4-17.2,1.2-25.5,3.1C155.2,26.6,145,35,139.4,49
		c-3.6,9.1-4.8,18.5-5.3,28c-0.6,11.1-0.1,22.3-0.2,33.5c0,1.7-0.2,3.5-0.3,5.8c-12.2,0-23.7,0-35.3,0c0,16.5,0,32.4,0,48.9
		c12,0,23.5,0,35.7,0c0,48.8,0,97,0,145.4c18.3,0,35.9,0,54.2,0c0-48.7,0-96.9,0-145.7c13.5,0,26.4,0,39.3,0
		c1.8-16.4,3.5-32.3,5.2-48.9c-14.9,0-29.6,0-44.8,0c0-2.5,0-4.3,0-6.1c0-8.3,0-16.7,0-25c0-10,4.9-14.8,14.9-14.8
		c8.2,0,16.3,0,24.5,0c1.8,0,3.5-0.2,5.3-0.3C232.8,53,232.8,36.9,232.8,20z"/>
	<path class="st1" d="M232.8,20c0,16.9,0,33,0,49.7c-1.8,0.1-3.6,0.3-5.3,0.3c-8.2,0-16.3,0-24.5,0c-10.1,0-14.9,4.9-14.9,14.8
		c0,8.3,0,16.7,0,25c0,1.8,0,3.6,0,6.1c15.2,0,29.9,0,44.8,0c-1.8,16.6-3.5,32.5-5.2,48.9c-12.9,0-25.8,0-39.3,0
		c0,48.8,0,97,0,145.7c-18.2,0-35.9,0-54.2,0c0-48.4,0-96.6,0-145.4c-12.1,0-23.7,0-35.7,0c0-16.5,0-32.4,0-48.9
		c11.5,0,23.1,0,35.3,0c0.1-2.3,0.3-4.1,0.3-5.8c0-11.2-0.4-22.3,0.2-33.5c0.5-9.5,1.6-19,5.3-28c5.6-13.9,15.8-22.3,29.9-25.7
		c8.3-2,16.9-2.7,25.5-3.1c10.6-0.5,21.3-0.1,32-0.1C228.6,20,230.4,20,232.8,20z"/>
</g>
</svg>
