<?xml version="1.0" encoding="utf-8"?>
<!-- Generator: Adobe Illustrator 19.2.1, SVG Export Plug-In . SVG Version: 6.00 Build 0)  -->
<svg version="1.1" id="Ebene_1" xmlns="http://www.w3.org/2000/svg" xmlns:xlink="http://www.w3.org/1999/xlink" x="0px" y="0px"
	 viewBox="0 0 2000 836" style="enable-background:new 0 0 2000 836;" xml:space="preserve">
<style type="text/css">
	.st0{fill:#181916;}
	.st1{fill:#191A17;}
	.st2{fill:#C38246;}
	.st3{fill:#C38347;}
	.st4{fill:#C38346;}
	.st5{fill:#C28245;}
	.st6{fill:#C38348;}
</style>
<g>
	<path class="st0" d="M294.5,90.3c0,20,0,39.8,0,59.8c14.6,0,29,0,43.7,0c0-19.8,0-39.6,0-59.8c16.9,0,33.2,0,50,0
		c0,56.2,0,112.5,0,169.1c-16.5,0-32.8,0-49.7,0c0-21.7,0-43.3,0-65.2c-14.8,0-29.2,0-43.9,0c0,21.7,0,43.3,0,65.2
		c-16.8,0-33.2,0-50,0c0-56.4,0-112.6,0-169.1C261.1,90.3,277.5,90.3,294.5,90.3z"/>
	<path class="st0" d="M1090.1,202.1c0,19.1,0,38.1,0,57.3c-16.8,0-33.2,0-50,0c0-56.3,0-112.5,0-168.6c0.5-0.7,1.2-0.6,1.8-0.6
		c23.9,0.1,47.6,0,71.5,0.2c11.1,0.2,22,2,32.3,6.6c17.4,7.6,25.8,21.4,27.2,39.9c1.7,22.5-9.2,37.7-28.1,47.6
		c17.5,22.2,23.7,50,36.8,73.9c-1.2,1.6-2.2,1.2-3.1,1.2c-16.9,0-33.8-0.1-50.7,0.1c-3,0-4-1.2-5-3.7c-5.3-13.8-10.8-27.5-16.3-41.2
		c-0.7-1.8-1.4-3.6-2.2-5.3C1100.9,202.3,1098.9,201.2,1090.1,202.1z M1090.4,130.2c0,10.9,0,21.4,0,32.1c6.3,0,12.4,0.5,18.5-0.4
		c8.7-1.3,13.5-7.3,13.4-16.6c-0.1-8.6-4.2-13.6-12.6-14.7C1103.4,129.7,1097,129.9,1090.4,130.2z"/>
	<path class="st0" d="M694.3,90.4c16,0,31.6,0,47,0c0.2,0.4,0.4,0.7,0.4,0.8c0,38.3-0.1,76.7-0.2,115c0,6.2-1.2,12.4-2.9,18.4
		c-5.4,19.4-18.2,31.6-37.4,36.8c-18.7,5.2-37.8,5.5-56.8,1.3c-23.7-5.2-37.4-20.8-40.9-45.3c-0.9-6.5-1.4-13-1.4-19.4
		c0-34.7,0-69.2,0-103.9c0-1.2,0.1-2.4,0.2-3.8c16,0,31.7,0,47.5,0c0.9,1.3,0.4,2.9,0.4,4.4c0,34.1,0,68.2,0,102.2
		c0,5.7,0.4,11.4,2.5,16.7c3.2,8.3,9.7,12.7,19,12.8c9.1,0.1,15.9-4.2,19.4-12.3c2.5-5.7,2.7-11.8,2.7-17.9c0-33.8,0-67.6,0-101.4
		C693.9,93.5,693.5,92,694.3,90.4z"/>
	<path class="st0" d="M906.3,90.3c37.2,0,74,0,111,0c0,13.4,0,26.7,0,40.5c-20.1,0-40.2,0-60.8,0c0,7.4,0,14.2,0,21.5
		c18.4,0,36.7,0,55.2,0c0,13.5,0,26.7,0,40.2c-18.5,0-36.8,0-55.4,0c0,8.8,0,17.2,0,26.2c20.4,0,40.5,0,60.8,0c0,13.9,0,27.1,0,40.6
		c-36.9,0-73.8,0-111,0C906.3,203.1,906.3,146.8,906.3,90.3z"/>
	<path class="st1" d="M145.5,205.6c0,18,0,35.7,0,53.7c-16.8,0-33.3,0-50.2,0c0-56.3,0-112.5,0-169c0.9-0.1,1.7-0.2,2.5-0.2
		c23.1,0.1,46.2,0,69.3,0.2c8.7,0.1,17.4,1.5,25.7,4.2c18.1,5.9,29.3,18,32.7,37.1c2,11.4,1.7,22.7-1.3,33.7
		c-5.7,21-20.7,32.2-41.1,37.2C171,205.6,158.5,205.6,145.5,205.6z M145.7,165.7c4.2,0.2,8.1,0.2,12.1-0.2
		c14.1-1.7,19.9-9.1,17.7-23.2c-0.9-5.7-4-9.6-9.6-11.1c-6.6-1.7-13.4-0.8-20.2-1.1C145.7,142.1,145.7,153.8,145.7,165.7z"/>
	<path class="st1" d="M752.1,259.5c21.2-42.9,42.1-85.2,63.4-128.3c-18.3,0-35.8,0-53.6,0c0-14,0-27.2,0-40.7c42.7,0,85.5,0,129,0
		c-21.1,42.7-42.1,85.2-63.3,128.3c20.2,0,39.6,0,59.3,0c0,13.9,0,27.2,0,40.7C842,259.5,797.3,259.5,752.1,259.5z"/>
	<path class="st1" d="M1243,169.2c0,30.6,0,60.2,0,90.2c-15,0-29.9,0-45.3,0c0-56.3,0-112.5,0-169.1c7.6,0,15,0,22.4,0
		c8.6,0,17.2,0.2,25.8-0.1c3.1-0.1,4.6,0.8,6.1,3.6c14.5,27.9,28.8,56,44,83.6c14.4,26.2,29.6,51.9,44.5,77.7
		c0.7,1.3,1.4,2.6,2.2,3.9c-1,1.2-2.2,0.7-3.2,0.7c-15.1,0-30.2-0.1-45.3,0.1c-2.8,0-4.2-1-5.3-3.3c-14.4-27.7-28.9-55.4-43.5-83
		C1244.7,172.3,1244,171.1,1243,169.2z"/>
	<path class="st2" d="M246.8,662.4c-0.1-19.1,0.7-35.6,6-51.4c7.8-23.4,24.8-35,48.7-37.7c11.1-1.2,22.1-0.8,33,1.4
		c20.9,4.3,33.7,17.3,39.6,37.5c2.7,9.2,4,18.6,4.5,28.2c1.1,20.1,1.3,40.1-3.6,59.8c-6.9,28.1-25,43.2-53.9,45
		c-10.4,0.7-20.8,0.5-31-1.8c-22.8-5.2-34.9-20.5-39.9-42.4C247.3,687.5,246.7,673.7,246.8,662.4z M351.1,657.5
		c-0.1-9.3,0.6-20.1-1.8-30.8c-2.7-12.1-7.6-22.6-19.9-27.8c-22.3-9.6-45.5,0.7-51.4,24.2c-5.8,22.7-5.2,46-1,68.7
		c4.2,23.1,19.5,33.1,42.8,30.2c14-1.7,24.3-11.6,28.7-27.5C351.6,682.9,351,670.9,351.1,657.5z"/>
	<path class="st2" d="M837.8,418.1c-0.2-16.3,0.7-31.8,5.2-46.7c7-23.6,24.1-37.6,48.6-40c11.2-1.1,22.4-1.2,33.5,1.2
		c22.4,4.6,35.4,18.7,40.9,40.4c5.1,20.3,4.8,40.9,3.7,61.5c-0.5,10.1-2.1,20-5.2,29.8c-7.3,23.2-23.6,35.3-47.2,38.5
		c-11.6,1.6-23.2,1.3-34.7-1c-23.6-4.8-36.2-20.3-41.2-43C838.3,445,837.7,431.2,837.8,418.1z M942.1,416c-0.2-8.1,0.4-17.3-1-26.3
		c-1.7-10.7-4.7-20.9-13.3-28.3c-19.9-16.7-51.1-6.8-58.8,18.7c-5.5,18.4-3.3,37.3-3.1,56.1c0.1,5,0.8,9.9,2.1,14.8
		c3.2,12.6,9.1,23.3,22.3,27.3c18.2,5.5,42,2.1,49.3-26.3C942.5,440.4,942,428.7,942.1,416z"/>
	<path class="st2" d="M381.7,334.6c0.3-0.2,0.4-0.3,0.5-0.3c25,0.2,50.1-2.2,75,2c24.2,4,39,18.1,43.6,42.2
		c4.8,25.1,5.2,50.5-0.6,75.5c-5.8,25.4-22.8,39.2-48,43.9c-16,3-32.2,2.2-48.5,2.3c-7.3,0-14.6,0-22.2,0
		C381.7,444.6,381.7,389.6,381.7,334.6z M408.5,356.6c0,40.6,0,80.5,0,120.4c0.7,0.2,1.4,0.5,2.1,0.5c10.2,0.1,20.4,0.2,30.7-1.4
		c18.5-2.8,29.8-12.3,32.8-29.8c3.5-20.1,3.7-40.6-0.4-60.7c-2.9-14.3-12-23.8-26.5-27.2C434.5,355.5,421.7,356.9,408.5,356.6z"/>
	<path class="st0" d="M527.9,219.8c19.4,0,38.3,0,57.4,0c0,13.5,0,26.5,0,39.6c-35.7,0-71.4,0-107.2,0c0-56.4,0-112.6,0-169
		c16.5,0,33,0,49.9,0C527.9,133.2,527.9,176.2,527.9,219.8z"/>
	<path class="st3" d="M1559.2,334.1c9.6,0,18.3,0,27.3,0c0,55.2,0,110.2,0,165.6c-8.8,0-17.5,0-26.8,0c0-24.3,0-48.7,0-73.5
		c-22.6,0-44.6,0-67.2,0c0,24.4,0,48.7,0,73.5c-9.2,0-18,0-27.2,0c0-55.1,0-110.1,0-165.5c8.8,0,17.6,0,26.8,0c0,22.4,0,44.8,0,67.4
		c22.5,0,44.6,0,67.2,0C1559.2,379.4,1559.2,357,1559.2,334.1z"/>
	<path class="st2" d="M626,576.3c9.6,0,18.4,0,27.3,0c0,55.3,0,110.3,0,165.6c-9,0-17.8,0-27.1,0c0-24.5,0-49,0-73.6
		c-22.5,0-44.6,0-67.2,0c0,24.5,0,49,0,73.6c-9.1,0-17.8,0-26.8,0c0-55.2,0-110.2,0-165.6c8.7,0,17.5,0,26.6,0c0,22.4,0,44.8,0,67.4
		c22.6,0,44.6,0,67.2,0C626,621.5,626,599,626,576.3z"/>
	<path class="st2" d="M969.4,643.8c22.7,0,44.8,0,67.3,0c0-22.5,0-44.9,0-67.5c9.2,0,18,0,27.1,0c0,55.1,0,110.1,0,165.5
		c-8.8,0-17.7,0-26.9,0c0-24.4,0-48.8,0-73.4c-22.5,0-44.7,0-67.2,0c0,24.4,0,48.8,0,73.4c-9.1,0-17.9,0-26.8,0
		c0-55.1,0-110,0-165.4c8.8,0,17.5,0,26.6,0C969.4,598.8,969.4,621,969.4,643.8z"/>
	<path class="st2" d="M216.9,742c-9.1,0-17.7,0-26.9,0c0-24.4,0-48.9,0-73.6c-22.5,0-44.6,0-67.2,0c0,24.4,0,48.8,0,73.5
		c-9.1,0-17.8,0-26.8,0c0-55,0-110,0-165.4c8.6,0,17.4,0,26.6,0c0,22.5,0,44.9,0,67.4c22.5,0,44.6,0,67.2,0c0-22.5,0-44.9,0-67.5
		c9.2,0,18,0,27.1,0C216.9,631.5,216.9,686.5,216.9,742z"/>
	<path class="st4" d="M805.6,364c-7.6-3.2-14.6-6.3-22.2-8c-13.5-3-26.9-3.8-40,1.4c-11.9,4.7-18.4,14.3-21.7,26.2
		c-1.7,6-2.7,12.2-2.6,18.5c0.2,13.8-0.9,27.7,0.8,41.5c1.4,10.9,4.4,21.2,13,28.8c8.8,7.8,19.4,8.6,30.5,7.6
		c6.3-0.6,12.6-2.1,18.5-4.7c1.7-0.7,2.7-1.6,2.7-3.7c-0.1-12.6-0.1-25.2-0.1-37.8c0-0.4-0.2-0.7-0.5-1.6c-8.6,0-17.2,0-26.2,0
		c0-7.6,0-14.9,0-22.4c17.5,0,34.9,0,52.2,0c0.9,1.3,0.6,2.6,0.6,3.8c0,23.9,0,47.6,0,71.5c0,2,0.1,3.7-2.1,4.8
		c-25.2,13-51.5,17.5-79.1,9.6c-16.3-4.7-26.2-16.4-31.8-32c-3.1-8.6-4.7-17.6-5.4-26.8c-1.7-21.6-2.1-43.1,3.7-64.3
		c7.3-27.3,25.5-42.5,53.8-45.4c18.6-1.9,36.7-0.2,54,7.6c2.2,1,3.2,1.9,3.1,4.5C806.1,350.1,805.9,356.8,805.6,364z"/>
	<path class="st2" d="M1107.6,364c-8.9-3.9-17.4-7.4-26.3-9c-12.3-2.1-24.6-2.4-36.3,2.6c-13.2,5.7-20,16.6-22.1,30.1
		c-3.2,21-3.6,42.2,0.7,63.2c4.4,21.8,20.4,32.2,42.6,29c6.2-0.9,12.2-2.2,18-4.7c1.2-0.6,2.5-1,2.5-2.8c-0.1-13.3,0-26.5,0-40.2
		c-9.1,0-17.7,0-26.5,0c0-7.6,0-14.7,0-21.9c3.2-0.7,47-0.8,51.9-0.2c1.1,1.2,0.6,2.6,0.6,3.9c0,23.7,0,47.4,0,71.1
		c0,2.1,0.2,4-2.2,5.2c-24.4,12.6-50,17-76.8,10.1c-20.9-5.4-31.9-20.8-36.2-40.9c-6-28.2-6.5-56.6,1.1-84.7
		c7-25.7,26.2-40.9,52.7-43.5c19-1.8,37.2-0.2,54.8,7.6c2.2,1,3.2,2.1,2.9,4.6C1108.4,350.2,1108,356.7,1107.6,364z"/>
	<path class="st3" d="M1102.6,576.2c9.1,0,17.7,0,26.4,0c1.2,1.5,0.7,3.2,0.7,4.8c0,34.5,0.1,69,0,103.5c0,6.2,0.5,12.1,2.4,18
		c3.7,11.1,11.3,17.5,22.6,19.4c6.2,1,12.5,0.9,18.5-0.7c12.5-3.4,18.4-12.5,20.4-24.6c0.7-4.2,0.9-8.6,0.9-12.8
		c0-34.2,0-68.4,0-102.6c0-1.5,0-3,0-5c8.6,0,16.9,0,25.1,0c1.3,0,2.1,0.6,2.1,2c0,1,0,1.9,0,2.9c0,34.3,0,68.7,0,103.1
		c0,8.1-0.6,16.3-2.6,24.3c-5.3,20.9-19.6,33.3-41.6,36.2c-11.7,1.5-23.4,1.7-35.2-0.5c-22.2-4.3-34.7-17.2-38.5-39.5
		c-1.1-6.3-1.6-12.6-1.6-19c0-35.3,0-70.6,0-106C1102.4,578.7,1102.5,577.7,1102.6,576.2z"/>
	<path class="st2" d="M667.3,500c-8.7,0-17.5-0.1-26.2,0c-2.4,0-2.6-1.7-3.1-3.2c-3.5-11.2-7-22.4-10.3-33.7
		c-0.7-2.7-1.8-3.7-4.8-3.7c-18.1,0.2-36.2,0.2-54.4,0c-3.2,0-4.2,1.1-5.1,3.9c-3.3,11.1-7.1,22.1-10.4,33.2
		c-0.7,2.6-1.8,3.6-4.6,3.5c-7.7-0.2-15.5-0.1-23.3-0.1c-0.6-1.7,0.2-2.8,0.7-4.1c17.6-52.7,35.2-105.4,52.8-158.1
		c1-3,2.3-4.1,5.6-4c8.5,0.2,16.9,0.2,25.4,0c2.7-0.1,3.9,0.7,4.7,3.2c17.5,53,35.1,106.1,52.6,159
		C667.3,497.3,667.9,498.3,667.3,500z M620.1,436.9c-8.1-25.9-16.1-51.6-24.4-78.3c-8.4,26.8-16.5,52.4-24.7,78.3
		C587.6,436.9,603.6,436.9,620.1,436.9z"/>
	<path class="st2" d="M351.2,500c-8.7,0-17.5-0.1-26.4,0c-2.4,0-2.5-1.7-3-3.2c-3.5-11.4-7.1-22.7-10.5-34.1
		c-0.7-2.5-1.7-3.2-4.3-3.2c-18.5,0.1-36.8,0.1-55.3,0c-2.8,0-3.8,1.2-4.6,3.6c-3.4,11.2-7.1,22.4-10.5,33.7c-0.7,2.6-2,3.5-4.7,3.4
		c-7.7-0.2-15.4-0.1-23.8-0.1c1.9-5.8,3.7-11.1,5.4-16.2c16.3-48.6,32.6-97.2,48.7-145.9c1-3,2.2-4.1,5.5-4c8.6,0.2,17.2,0.2,25.8,0
		c2.3,0,3.4,0.6,4.2,2.9c17.6,53.4,35.4,106.8,53,160.2C351.2,497.9,351.8,498.8,351.2,500z M303.9,436.9c-8.1-25.9-16-51.3-24-76.6
		c-0.3,0-0.7,0.1-1.1,0.1c-8,25.4-16,50.8-24.1,76.5C271.5,436.9,287.3,436.9,303.9,436.9z"/>
	<path class="st5" d="M122.7,499.9c-9.2,0-17.9,0-26.8,0c0-55.3,0-110.3,0-165.2c0.8-0.8,1.7-0.6,2.5-0.6c17.3,0,34.6-0.1,51.9,0.1
		c7.3,0.1,14.6,1.1,21.7,3.1c19.9,5.7,31.3,19.6,32.5,40.2c0.6,9.1,0.2,18-2.5,26.7c-6.1,19.2-20.4,28.3-39.2,32.1
		c-9.7,1.9-19.5,1.8-29.3,1.7c-3.4,0-6.8,0-10.8,0C122.7,458.8,122.7,479.2,122.7,499.9z M122.9,415.4c10.1-0.2,19.9,0.6,29.5-0.8
		c13.1-1.9,21.3-8.6,23.8-19.8c1.3-6.2,1.3-12.4,0-18.5c-2-9.2-7.5-15.4-16.5-18c-12.1-3.4-24.4-1.3-36.7-2
		C122.9,376.3,122.9,395.6,122.9,415.4z"/>
	<path class="st3" d="M1625.2,499.8c0-55.4,0-110.3,0-165.5c30.5,0,60.9,0,91.7,0c0,7.1,0,14.4,0,22.4c-21.4,0-42.7,0-64.3,0
		c0,15.6,0,30.5,0,45.9c19.4,0,38.9,0,58.7,0c0,7.6,0,14.9,0,22.6c-19.4,0-38.9,0-58.7,0c0,17.4,0,34.3,0,51.9c21.4,0,42.8,0,64.4,0
		c0,7.9,0,15.2,0,22.7C1686.4,499.8,1656,499.8,1625.2,499.8z"/>
	<path class="st3" d="M1469.5,576.1c0,7.8,0,15.1,0,22.9c-21.5,0-42.9,0-64.5,0c0,15.5,0,30.3,0,45.6c19.6,0,39.1,0,59.1,0
		c0,7.6,0,14.9,0,22.6c-19.7,0-39.3,0-59,0c0,17.5,0,34.6,0,52.1c21.5,0,42.7,0,64.3,0c0,7.6,0,14.9,0,22.2
		c-3.1,0.7-83.9,1-91.2,0.3c-1.1-1.3-0.6-2.9-0.6-4.4c0-52.2,0-104.4-0.1-156.6c0-3.7,0.7-5,4.7-4.9c27.7,0.2,55.4,0.1,83,0.1
		C1466.6,576.1,1467.9,576.1,1469.5,576.1z"/>
	<path class="st2" d="M686.4,710.6c11,6,21.6,9.8,33,11.1c8.6,0.9,17.1,0.9,25.4-2.1c8.5-3.2,14.4-8.7,15.9-18
		c1.5-9.8-2.6-17.2-10.5-22.8c-8.5-6-18.5-8.6-28-12.4c-11-4.2-21.2-9.7-28.3-19.5c-18.9-26.3-6.3-62.4,24.8-71.1
		c20.5-5.7,40.6-3.6,60.2,4.1c1.2,0.5,2.7,0.7,2.6,2.7c-0.5,7.4-1,14.9-1.5,22.8c-7.1-2.9-13.7-5.8-20.8-7.4
		c-9.7-2.2-19.4-3.1-29.2-0.4c-9.1,2.5-15.1,7.8-16.4,17.6c-1.2,9.4,2.8,16.4,10.6,21.4c8.1,5.2,17.4,7.8,26.3,11.3
		c9.1,3.7,17.5,8,25,14.5c19.7,17.3,21.4,65-17.5,78.7c-23.9,8.4-47.7,5.5-70.8-4.2c-1-0.4-2.2-0.7-2.1-2.2
		C685.5,726.9,685.9,719.1,686.4,710.6z"/>
	<path class="st2" d="M1302.4,363.3c-7.9-3.6-15.4-6.6-23.4-8.2c-9.2-1.8-18.5-2.2-27.5,0.5c-7.5,2.2-13,6.6-14.8,14.7
		c-1.8,8.2-0.1,15.4,6.3,21.1c4.7,4.3,10.5,6.6,16.2,9c9,3.6,18.1,6.6,26.8,11.1c34.1,17.5,30.9,62.6,8.7,79.5
		c-10.5,7.9-22.4,11.4-35.2,12.3c-16.7,1.2-32.7-1.5-48.3-7.9c-2.9-1.2-3.9-2.7-3.7-5.8c0.6-6.7,0.8-13.5,1.2-20.3
		c1.7-0.6,2.7,0.7,3.8,1.2c16.3,8.1,33.2,12.3,51.4,8.1c14.6-3.4,22.5-16.2,18.6-29.2c-2.1-6.9-7.3-11.2-13.2-14.8
		c-8.7-5.2-18.7-7.6-27.9-11.6c-6.4-2.7-12.6-5.9-17.8-10.5c-15.2-13.3-18.2-30.4-13.7-48.8c4.5-18.5,18.6-27.5,36.2-31.2
		c18.6-3.9,36.9-1.7,54.6,5c2.4,0.9,3.3,2.1,3.1,4.9C1303.2,349.1,1302.9,356,1302.4,363.3z"/>
	<path class="st2" d="M1438.4,469.4c0.4,7.5,0.8,14.6,1.2,21.8c0.1,2.1-1.7,2.3-3,3c-15.5,8.1-32.2,10.5-49.5,8.8
		c-14.2-1.3-27-5.9-36.8-16.8c-9.1-10.1-13.1-22.4-15-35.4c-3.3-22.7-3.7-45.5,0.7-68.2c2.9-15.3,8.8-29.1,21.4-39.2
		c10.6-8.5,23.1-11.6,36.2-12.6c13.9-1,27.3,1,40.3,6.1c3,1.2,4.3,2.3,3.8,6c-0.8,6.2-0.9,12.4-1.2,19c-4.9-1.7-9.4-3.5-14-5.1
		c-8.6-2.8-17.4-3.9-26.2-2.6c-18.9,2.8-30,13.9-33.6,33.2c-3.1,16.7-1.7,33.7-1.2,50.5c0.2,5.7,1.3,11.2,3.2,16.6
		c5.6,16,17.7,24.8,34.7,25.7c12.5,0.7,23.7-3.2,34.5-8.8c1.1-0.6,2.2-1.2,3.3-1.7C1437.2,469.6,1437.4,469.6,1438.4,469.4z"/>
	<path class="st2" d="M503.1,604.3c-10.6-4.7-20.8-8.1-31.8-8.4c-22.5-0.5-37.1,10.3-41.6,32.4c-4.2,20.4-4,41.4-0.2,61.9
		c5.1,27.2,25.5,34.7,49,31.5c7.7-1.1,14.8-4.4,21.7-8c1.4-0.7,2.9-1.5,4.9-2.5c0.4,7.7,0.7,15,1.2,22.2c0.1,2.1-1.7,2.3-3,3
		c-19.6,10.1-40.1,11.6-61.3,6.6c-16.7-3.9-27.9-14.5-34.5-30.2c-2.7-6.3-4.4-12.8-5.4-19.5c-3.4-23.7-3.8-47.5,1.2-71
		c3.9-18.2,12.3-33.5,29.7-42.3c12.8-6.5,26.7-7.9,40.8-7.1c9.5,0.6,18.5,2.8,27.3,6.3c2.6,1,3.7,2.1,3.5,5.1
		C503.9,590.7,503.6,597.2,503.1,604.3z"/>
	<path class="st2" d="M915.8,711.3c0.4,7.4,0.7,14.5,1.2,21.4c0.2,2.2-1.3,2.7-2.8,3.6c-8.9,4.7-18.4,7.7-28.3,8.7
		c-11.7,1.2-23.5,1-35-2.4c-18.9-5.6-29.8-18.7-35.2-37.1c-6.2-20.9-5.8-42.4-4.6-63.8c0.6-9.7,2.3-19.2,5.4-28.4
		c7.9-23.8,24.6-36.7,49.2-39.8c15.8-2,31.2-0.2,46,5.7c2.7,1.1,4,2.2,3.7,5.3c-0.7,6.4-1,12.9-1.5,19.7c-8.8-3.7-17.1-6.6-26.2-7.8
		c-24.9-3.2-42.4,8.1-47.3,32.6c-4.1,20.3-3.9,41.1,0,61.5c5.1,26.8,25.6,34.7,49.1,31.3c8.5-1.2,16-5,23.5-9
		C913.7,712.2,914.6,711.9,915.8,711.3z"/>
	<path class="st5" d="M1350.6,741.9c-30.2,0-60.1,0-90.3,0c0-55.3,0-110.3,0-165.6c8.9,0,17.5,0,26.1,0c1,1.7,0.6,3.5,0.6,5.1
		c0,44.3,0.1,88.6-0.1,132.9c0,4.4,1.3,5.2,5.4,5.2c18.1-0.2,36.2,0,54.4,0.1c1.2,0,2.4,0,3.9,0
		C1350.6,727.2,1350.6,734.4,1350.6,741.9z"/>
	<path class="st2" d="M1175.9,499.9c-8.9,0-17.7,0-26.8,0c0-55.2,0-110.2,0-165.6c8.8,0,17.6,0,26.8,0
		C1175.9,389.2,1175.9,444.3,1175.9,499.9z"/>
	<path class="st1" d="M1284.4,90.3c20.3,0,39.7,0,59.4,0c0,36.5,0,72.8,0,110.5C1323.8,163.5,1304.3,127.2,1284.4,90.3z"/>
	<path class="st6" d="M234.6,302.7c0-8.8,7.3-16,16.2-16c8.8,0.1,16.2,7.6,16.1,16.2c-0.1,8.8-7.5,16-16.3,16
		C241.7,318.9,234.6,311.6,234.6,302.7z"/>
	<path class="st6" d="M323.5,302.5c0.1,8.9-7.1,16.2-15.9,16.4c-8.8,0.2-16.2-7.1-16.5-15.9c-0.2-8.7,7.1-16.2,16-16.4
		C315.9,286.6,323.4,293.8,323.5,302.5z"/>
</g>
</svg>
