<?xml version="1.0" encoding="utf-8"?>
<!-- Generator: Adobe Illustrator 19.2.1, SVG Export Plug-In . SVG Version: 6.00 Build 0)  -->
<svg version="1.1" id="Ebene_1" xmlns="http://www.w3.org/2000/svg" xmlns:xlink="http://www.w3.org/1999/xlink" x="0px" y="0px"
	 viewBox="0 0 2000 836" style="enable-background:new 0 0 2000 836;" xml:space="preserve">
<style type="text/css">
	.st0{fill:#181916;}
	.st1{fill:#191A17;}
	.st2{fill:#C38246;}
	.st3{fill:#C38347;}
	.st4{fill:#C38346;}
	.st5{fill:#C28245;}
	.st6{fill:#C38348;}
</style>
<g>
	<path class="st0" d="M265.1,24.9c0,24.1,0,47.9,0,71.9c17.6,0,34.9,0,52.6,0c0-23.8,0-47.7,0-71.9c20.3,0,40,0,60.1,0
		c0,67.6,0,135.4,0,203.4c-19.8,0-39.5,0-59.8,0c0-26.1,0-52.1,0-78.4c-17.8,0-35.1,0-52.8,0c0,26.1,0,52.1,0,78.5
		c-20.2,0-40,0-60.1,0c0-67.8,0-135.5,0-203.4C224.9,24.9,244.7,24.9,265.1,24.9z"/>
	<path class="st0" d="M1222.3,159.3c0,23,0,45.8,0,68.9c-20.2,0-40,0-60.1,0c0-67.7,0-135.3,0-202.9c0.6-0.9,1.5-0.7,2.2-0.7
		c28.7,0.1,57.3,0,86,0.3c13.4,0.2,26.5,2.4,38.9,7.9c20.9,9.2,31.1,25.7,32.7,48c2,27.1-11.1,45.3-33.8,57.3
		c21,26.7,28.5,60.1,44.3,88.9c-1.4,1.9-2.7,1.4-3.7,1.4c-20.3,0-40.7-0.1-61,0.1c-3.6,0-4.8-1.4-6-4.4c-6.4-16.6-13-33.1-19.6-49.6
		c-0.9-2.2-1.7-4.3-2.7-6.4C1235.3,159.6,1232.9,158.3,1222.3,159.3z M1222.7,72.8c0,13.1,0,25.7,0,38.6c7.6,0,14.9,0.6,22.2-0.5
		c10.5-1.6,16.2-8.8,16.1-20c-0.1-10.3-5-16.4-15.2-17.7C1238.3,72.2,1230.6,72.5,1222.7,72.8z"/>
	<path class="st0" d="M746.1,25c19.2,0,38,0,56.6,0c0.3,0.5,0.5,0.8,0.5,1c0,46.1-0.1,92.3-0.2,138.4c0,7.5-1.5,14.9-3.5,22.1
		c-6.5,23.4-21.9,38-45,44.3c-22.5,6.2-45.5,6.6-68.3,1.6c-28.5-6.2-45-25-49.2-54.5c-1.1-7.8-1.7-15.6-1.7-23.4
		c0-41.7,0-83.3,0-125c0-1.5,0.1-2.9,0.2-4.6c19.2,0,38.1,0,57.1,0c1.1,1.6,0.5,3.5,0.5,5.3c0,41,0,82,0,123c0,6.9,0.5,13.7,3,20.1
		c3.8,10,11.7,15.3,22.8,15.4c11,0.1,19.1-5,23.3-14.8c3-6.9,3.3-14.2,3.3-21.5c0-40.7,0-81.3,0-122C745.6,28.7,745.2,26.9,746.1,25
		z"/>
	<path class="st0" d="M1001.2,24.8c44.7,0,89,0,133.5,0c0,16.1,0,32.1,0,48.7c-24.2,0-48.4,0-73.1,0c0,8.9,0,17.1,0,25.9
		c22.1,0,44.2,0,66.4,0c0,16.3,0,32.1,0,48.4c-22.3,0-44.3,0-66.6,0c0,10.6,0,20.7,0,31.5c24.5,0,48.7,0,73.2,0
		c0,16.7,0,32.6,0,48.9c-44.4,0-88.8,0-133.5,0C1001.2,160.5,1001.2,92.8,1001.2,24.8z"/>
	<path class="st1" d="M85.9,163.6c0,21.7,0,43,0,64.6c-20.2,0-40.1,0-60.4,0c0-67.7,0-135.4,0-203.3c1.1-0.1,2.1-0.3,3-0.3
		c27.8,0.1,55.6,0,83.4,0.3c10.5,0.1,20.9,1.8,30.9,5.1c21.8,7.1,35.3,21.6,39.3,44.6c2.4,13.7,2,27.3-1.6,40.6
		c-6.9,25.3-24.9,38.7-49.4,44.8C116.5,163.6,101.5,163.6,85.9,163.6z M86.1,115.6c5,0.3,9.8,0.3,14.6-0.3c17-2,24-11,21.3-27.9
		c-1.1-6.9-4.8-11.6-11.6-13.4c-8-2.1-16.1-1-24.3-1.3C86.1,87.2,86.1,101.3,86.1,115.6z"/>
	<path class="st1" d="M815.6,228.4c25.5-51.6,50.7-102.5,76.3-154.4c-22,0-43.1,0-64.5,0c0-16.8,0-32.7,0-49c51.4,0,102.9,0,155.2,0
		c-25.4,51.4-50.6,102.5-76.2,154.4c24.3,0,47.7,0,71.4,0c0,16.7,0,32.7,0,49C923.8,228.4,870.1,228.4,815.6,228.4z"/>
	<path class="st1" d="M1406.3,119.8c0,36.8,0,72.4,0,108.5c-18,0-36,0-54.5,0c0-67.7,0-135.4,0-203.5c9.1,0,18.1,0,27,0
		c10.3,0,20.7,0.2,31-0.1c3.7-0.1,5.5,1,7.3,4.3c17.5,33.6,34.7,67.4,52.9,100.6c17.3,31.5,35.6,62.4,53.5,93.5
		c0.9,1.6,1.7,3.1,2.6,4.7c-1.2,1.5-2.6,0.9-3.8,0.9c-18.2,0-36.3-0.1-54.5,0.1c-3.4,0-5-1.2-6.4-4c-17.3-33.3-34.8-66.6-52.3-99.8
		C1408.3,123.5,1407.5,122.1,1406.3,119.8z"/>
	<path class="st2" d="M207.7,713.2c-0.1-23,0.8-42.8,7.2-61.8c9.4-28.2,29.8-42.1,58.6-45.3c13.3-1.5,26.6-1,39.7,1.7
		c25.2,5.2,40.6,20.8,47.7,45.1c3.3,11.1,4.8,22.4,5.4,33.9c1.3,24.2,1.6,48.3-4.3,72c-8.3,33.8-30.1,52-64.8,54.1
		c-12.5,0.8-25,0.6-37.3-2.2c-27.4-6.2-42-24.7-48-51C208.3,743.4,207.6,726.8,207.7,713.2z M333.2,707.3c-0.1-11.2,0.7-24.2-2.2-37
		c-3.3-14.5-9.2-27.2-23.9-33.5c-26.8-11.6-54.7,0.9-61.9,29.1c-7,27.3-6.2,55.3-1.2,82.7c5.1,27.8,23.5,39.8,51.5,36.3
		c16.9-2.1,29.2-14,34.5-33.1C333.8,737.8,333.1,723.4,333.2,707.3z"/>
	<path class="st2" d="M918.8,419.2c-0.2-19.6,0.9-38.2,6.2-56.2c8.4-28.4,29-45.2,58.5-48.1c13.5-1.3,26.9-1.4,40.3,1.4
		c26.9,5.5,42.6,22.5,49.2,48.6c6.1,24.4,5.8,49.2,4.5,74c-0.6,12.1-2.5,24.1-6.2,35.8c-8.8,27.9-28.4,42.5-56.8,46.3
		c-14,1.9-27.9,1.6-41.7-1.2c-28.4-5.8-43.6-24.4-49.6-51.7C919.4,451.6,918.6,435,918.8,419.2z M1044.2,416.7
		c-0.2-9.8,0.5-20.8-1.2-31.7c-2-12.9-5.6-25.2-16-34c-23.9-20.1-61.5-8.2-70.7,22.5c-6.6,22.1-4,44.9-3.7,67.5
		c0.1,6,1,11.9,2.5,17.8c3.8,15.1,10.9,28,26.8,32.8c21.9,6.6,50.5,2.5,59.3-31.6C1044.7,446.1,1044.1,432,1044.2,416.7z"/>
	<path class="st2" d="M370,318.8c0.4-0.3,0.5-0.4,0.6-0.4c30.1,0.3,60.3-2.6,90.2,2.4c29.1,4.8,46.9,21.8,52.5,50.8
		c5.8,30.2,6.2,60.7-0.7,90.8c-7,30.6-27.4,47.2-57.7,52.8c-19.3,3.6-38.8,2.7-58.3,2.8c-8.8,0-17.6,0-26.7,0
		C370,451.1,370,384.9,370,318.8z M402.3,345.2c0,48.8,0,96.8,0,144.9c0.9,0.2,1.7,0.6,2.5,0.6c12.3,0.1,24.6,0.2,36.9-1.7
		c22.2-3.4,35.9-14.8,39.5-35.8c4.2-24.2,4.4-48.8-0.5-73c-3.5-17.2-14.4-28.6-31.9-32.7C433.6,343.9,418.1,345.6,402.3,345.2z"/>
	<path class="st0" d="M545.9,180.6c23.3,0,46.1,0,69,0c0,16.3,0,31.9,0,47.7c-43,0-85.9,0-129,0c0-67.9,0-135.5,0-203.3
		c19.9,0,39.7,0,60,0C545.9,76.5,545.9,128.2,545.9,180.6z"/>
	<path class="st3" d="M1786.7,318.2c11.5,0,22,0,32.8,0c0,66.4,0,132.6,0,199.2c-10.6,0-21.1,0-32.3,0c0-29.2,0-58.6,0-88.4
		c-27.2,0-53.7,0-80.9,0c0,29.3,0,58.6,0,88.4c-11.1,0-21.7,0-32.7,0c0-66.3,0-132.5,0-199.1c10.6,0,21.2,0,32.2,0
		c0,26.9,0,53.9,0,81.1c27.1,0,53.6,0,80.9,0C1786.7,372.7,1786.7,345.7,1786.7,318.2z"/>
	<path class="st2" d="M663.9,609.6c11.5,0,22.1,0,32.9,0c0,66.5,0,132.7,0,199.2c-10.8,0-21.4,0-32.6,0c0-29.5,0-58.9,0-88.5
		c-27.1,0-53.7,0-80.9,0c0,29.5,0,58.9,0,88.5c-11,0-21.4,0-32.2,0c0-66.4,0-132.6,0-199.2c10.5,0,21,0,32,0c0,27,0,53.9,0,81.1
		c27.2,0,53.7,0,80.8,0C663.9,663.9,663.9,636.9,663.9,609.6z"/>
	<path class="st2" d="M1077.1,690.8c27.3,0,53.9,0,81,0c0-27.1,0-54,0-81.2c11.1,0,21.7,0,32.6,0c0,66.3,0,132.5,0,199.1
		c-10.6,0-21.3,0-32.4,0c0-29.4,0-58.7,0-88.3c-27.1,0-53.8,0-80.9,0c0,29.4,0,58.7,0,88.3c-11,0-21.5,0-32.3,0
		c0-66.3,0-132.4,0-199c10.6,0,21.1,0,32,0C1077.1,636.6,1077.1,663.4,1077.1,690.8z"/>
	<path class="st2" d="M171.8,808.9c-10.9,0-21.3,0-32.4,0c0-29.4,0-58.8,0-88.5c-27.1,0-53.7,0-80.9,0c0,29.3,0,58.7,0,88.4
		c-11,0-21.4,0-32.2,0c0-66.2,0-132.4,0-199c10.4,0,20.9,0,32,0c0,27.1,0,54,0,81.1c27.1,0,53.7,0,80.8,0c0-27.1,0-54,0-81.2
		c11.1,0,21.7,0,32.6,0C171.8,676,171.8,742.2,171.8,808.9z"/>
	<path class="st4" d="M880,354.2c-9.1-3.8-17.6-7.6-26.7-9.6c-16.2-3.6-32.4-4.6-48.1,1.7c-14.3,5.7-22.1,17.2-26.1,31.5
		c-2,7.2-3.2,14.7-3.1,22.2c0.2,16.6-1.1,33.3,1,49.9c1.7,13.1,5.3,25.5,15.7,34.7c10.6,9.4,23.4,10.4,36.7,9.2
		c7.6-0.7,15.1-2.5,22.2-5.6c2-0.9,3.3-1.9,3.2-4.4c-0.1-15.2-0.1-30.3-0.1-45.5c0-0.5-0.3-0.9-0.6-1.9c-10.3,0-20.7,0-31.5,0
		c0-9.2,0-17.9,0-26.9c21.1,0,42,0,62.8,0c1.1,1.6,0.7,3.1,0.7,4.6c0,28.7,0,57.3,0,86c0,2.4,0.1,4.5-2.5,5.8
		c-30.3,15.6-62,21-95.2,11.6c-19.6-5.6-31.5-19.7-38.2-38.5c-3.7-10.4-5.6-21.2-6.5-32.2c-2.1-26-2.5-51.9,4.4-77.4
		c8.8-32.8,30.7-51.1,64.7-54.6c22.4-2.3,44.2-0.2,65,9.1c2.6,1.2,3.9,2.3,3.7,5.4C880.6,337.4,880.4,345.5,880,354.2z"/>
	<path class="st2" d="M1243.4,354.2c-10.7-4.7-20.9-8.9-31.7-10.8c-14.8-2.5-29.6-2.9-43.7,3.1c-15.9,6.8-24.1,20-26.6,36.2
		c-3.8,25.3-4.3,50.8,0.8,76c5.3,26.2,24.6,38.8,51.2,34.9c7.4-1.1,14.7-2.6,21.6-5.7c1.5-0.7,3-1.2,3-3.4c-0.1-16,0-31.9,0-48.4
		c-10.9,0-21.3,0-31.9,0c0-9.2,0-17.7,0-26.3c3.9-0.8,56.5-1,62.5-0.3c1.3,1.4,0.7,3.1,0.7,4.7c0,28.5,0,57,0,85.5
		c0,2.5,0.2,4.8-2.7,6.3c-29.4,15.1-60.1,20.4-92.4,12.1c-25.2-6.5-38.4-25-43.5-49.2c-7.2-33.9-7.8-68.1,1.3-101.9
		c8.4-30.9,31.5-49.2,63.4-52.3c22.8-2.2,44.8-0.3,65.9,9.2c2.7,1.2,3.8,2.5,3.5,5.5C1244.3,337.5,1243.9,345.4,1243.4,354.2z"/>
	<path class="st3" d="M1237.3,609.5c10.9,0,21.3,0,31.8,0c1.4,1.8,0.8,3.9,0.8,5.8c0,41.5,0.1,83,0,124.5c0,7.4,0.6,14.6,2.9,21.7
		c4.4,13.4,13.6,21.1,27.2,23.3c7.4,1.2,15,1.1,22.3-0.9c15-4.1,22.1-15,24.6-29.6c0.9-5.1,1.1-10.3,1.1-15.4c0-41.2,0-82.3,0-123.5
		c0-1.8,0-3.6,0-6c10.3,0,20.3,0,30.2,0c1.6,0,2.5,0.7,2.5,2.4c0,1.2,0,2.3,0,3.5c0,41.3,0,82.6,0,124c0,9.8-0.7,19.6-3.1,29.2
		c-6.4,25.1-23.6,40.1-50,43.5c-14.1,1.8-28.2,2.1-42.3-0.6c-26.7-5.2-41.7-20.7-46.3-47.5c-1.3-7.6-1.9-15.2-1.9-22.9
		c0-42.5,0-85,0-127.5C1237.1,612.4,1237.2,611.2,1237.3,609.5z"/>
	<path class="st2" d="M713.6,517.8c-10.5,0-21-0.1-31.5,0c-2.9,0-3.1-2-3.7-3.8c-4.2-13.5-8.4-27-12.4-40.5
		c-0.9-3.2-2.2-4.5-5.8-4.4c-21.8,0.2-43.6,0.2-65.5,0c-3.8,0-5.1,1.3-6.1,4.7c-4,13.4-8.5,26.6-12.5,40c-0.9,3.1-2.2,4.3-5.5,4.2
		c-9.3-0.2-18.6-0.1-28-0.1c-0.7-2,0.3-3.4,0.8-4.9c21.2-63.4,42.4-126.8,63.5-190.2c1.2-3.6,2.8-4.9,6.7-4.8
		c10.2,0.3,20.3,0.2,30.5,0c3.2-0.1,4.7,0.9,5.7,3.9c21,63.8,42.2,127.6,63.3,191.3C713.6,514.5,714.3,515.7,713.6,517.8z
		 M656.9,441.9c-9.7-31.2-19.4-62.1-29.4-94.2c-10.1,32.2-19.9,63-29.7,94.2C617.7,441.9,637,441.9,656.9,441.9z"/>
	<path class="st2" d="M333.3,517.8c-10.5,0-21.1-0.1-31.8,0c-2.9,0-3-2.1-3.6-3.9c-4.2-13.7-8.6-27.3-12.6-41
		c-0.9-3-2.1-3.9-5.2-3.9c-22.2,0.1-44.3,0.1-66.5,0c-3.4,0-4.6,1.4-5.5,4.3c-4.1,13.5-8.5,27-12.6,40.5c-0.9,3.1-2.4,4.2-5.6,4.1
		c-9.3-0.2-18.5-0.1-28.6-0.1c2.3-7,4.4-13.3,6.5-19.5c19.6-58.5,39.2-117,58.6-175.5c1.2-3.6,2.7-4.9,6.6-4.8
		c10.3,0.3,20.7,0.2,31,0c2.8,0,4.1,0.7,5,3.5c21.2,64.3,42.6,128.5,63.8,192.7C333.3,515.2,334.1,516.3,333.3,517.8z M276.4,441.8
		c-9.8-31.2-19.3-61.7-28.9-92.1c-0.4,0-0.9,0.1-1.3,0.1c-9.6,30.5-19.2,61.1-29,92C237.4,441.8,256.5,441.8,276.4,441.8z"/>
	<path class="st5" d="M58.4,517.6c-11.1,0-21.5,0-32.2,0c0-66.5,0-132.7,0-198.7c1-1,2-0.7,3-0.7c20.8,0,41.6-0.1,62.5,0.1
		c8.8,0.1,17.6,1.3,26.1,3.7c23.9,6.8,37.6,23.6,39.1,48.4c0.7,10.9,0.3,21.7-3,32.1c-7.3,23.1-24.6,34.1-47.2,38.6
		c-11.7,2.3-23.5,2.2-35.3,2.1c-4.1,0-8.2,0-13,0C58.4,468.2,58.4,492.8,58.4,517.6z M58.6,416c12.2-0.3,23.9,0.7,35.5-1
		c15.8-2.3,25.6-10.3,28.6-23.8c1.6-7.4,1.6-14.9,0-22.3c-2.4-11.1-9-18.5-19.9-21.6c-14.5-4.1-29.3-1.6-44.2-2.4
		C58.6,368.9,58.6,392.2,58.6,416z"/>
	<path class="st3" d="M1866.1,517.5c0-66.6,0-132.7,0-199.1c36.7,0,73.3,0,110.3,0c0,8.6,0,17.3,0,26.9c-25.7,0-51.4,0-77.4,0
		c0,18.8,0,36.7,0,55.2c23.4,0,46.8,0,70.6,0c0,9.2,0,17.9,0,27.2c-23.4,0-46.8,0-70.6,0c0,20.9,0,41.3,0,62.5c25.8,0,51.5,0,77.5,0
		c0,9.5,0,18.3,0,27.3C1939.7,517.5,1903.2,517.5,1866.1,517.5z"/>
	<path class="st3" d="M1678.8,609.3c0,9.4,0,18.2,0,27.6c-25.9,0-51.6,0-77.6,0c0,18.6,0,36.5,0,54.9c23.6,0,47.1,0,71.1,0
		c0,9.2,0,17.9,0,27.2c-23.7,0-47.3,0-71,0c0,21.1,0,41.6,0,62.7c25.9,0,51.4,0,77.4,0c0,9.2,0,17.9,0,26.7
		c-3.7,0.8-101,1.2-109.7,0.4c-1.3-1.6-0.7-3.5-0.7-5.3c0-62.8,0-125.6-0.1-188.4c0-4.4,0.9-6,5.7-5.9c33.3,0.2,66.6,0.1,99.9,0.1
		C1675.3,609.3,1676.8,609.3,1678.8,609.3z"/>
	<path class="st2" d="M736.6,771.2c13.2,7.2,26,11.8,39.7,13.3c10.3,1.1,20.6,1.1,30.6-2.5c10.2-3.8,17.3-10.5,19.1-21.7
		c1.8-11.8-3.1-20.7-12.6-27.4c-10.2-7.2-22.2-10.4-33.7-14.9c-13.2-5.1-25.5-11.7-34-23.5c-22.7-31.6-7.6-75.1,29.8-85.5
		c24.7-6.8,48.8-4.3,72.4,4.9c1.5,0.6,3.3,0.9,3.1,3.2c-0.6,8.9-1.2,17.9-1.8,27.4c-8.6-3.5-16.5-7-25-8.9
		c-11.7-2.7-23.3-3.7-35.1-0.5c-10.9,3-18.2,9.4-19.7,21.2c-1.4,11.3,3.4,19.7,12.7,25.7c9.7,6.3,20.9,9.4,31.6,13.6
		c10.9,4.4,21.1,9.6,30.1,17.4c23.7,20.8,25.8,78.2-21.1,94.7c-28.8,10.1-57.4,6.6-85.2-5.1c-1.2-0.5-2.6-0.9-2.5-2.7
		C735.5,790.7,736,781.4,736.6,771.2z"/>
	<path class="st2" d="M1477.8,353.3c-9.5-4.3-18.5-8-28.2-9.9c-11.1-2.2-22.2-2.6-33.1,0.6c-9,2.6-15.6,8-17.8,17.7
		c-2.2,9.9-0.1,18.5,7.6,25.4c5.7,5.2,12.6,8,19.5,10.8c10.8,4.3,21.8,8,32.2,13.4c41,21.1,37.2,75.3,10.5,95.6
		c-12.6,9.5-26.9,13.7-42.3,14.8c-20.1,1.4-39.4-1.8-58.1-9.5c-3.5-1.4-4.7-3.2-4.4-7c0.7-8.1,1-16.3,1.4-24.4
		c2-0.7,3.2,0.8,4.6,1.5c19.6,9.7,40,14.8,61.8,9.7c17.6-4.1,27.1-19.5,22.4-35.1c-2.5-8.3-8.8-13.5-15.9-17.8
		c-10.5-6.3-22.5-9.1-33.6-13.9c-7.7-3.3-15.1-7.1-21.4-12.6c-18.3-16-21.9-36.6-16.5-58.7c5.4-22.3,22.4-33.1,43.6-37.5
		c22.4-4.7,44.4-2.1,65.7,6c2.9,1.1,4,2.5,3.7,5.9C1478.7,336.2,1478.4,344.5,1477.8,353.3z"/>
	<path class="st2" d="M1641.4,481c0.5,9,1,17.6,1.4,26.2c0.1,2.5-2.1,2.8-3.6,3.6c-18.7,9.7-38.7,12.6-59.6,10.6
		c-17.1-1.6-32.5-7.1-44.3-20.2c-10.9-12.1-15.8-26.9-18.1-42.6c-4-27.3-4.4-54.8,0.8-82c3.5-18.4,10.6-35,25.8-47.2
		c12.7-10.2,27.8-14,43.6-15.2c16.7-1.2,32.8,1.2,48.5,7.3c3.6,1.4,5.2,2.8,4.6,7.2c-1,7.4-1.1,14.9-1.5,22.9
		c-5.9-2.1-11.3-4.2-16.9-6.1c-10.3-3.4-20.9-4.7-31.5-3.1c-22.7,3.4-36.1,16.7-40.4,40c-3.7,20.1-2.1,40.5-1.5,60.8
		c0.2,6.8,1.6,13.5,3.9,20c6.7,19.2,21.3,29.8,41.7,30.9c15,0.8,28.5-3.8,41.5-10.6c1.3-0.7,2.6-1.4,4-2.1
		C1639.9,481.2,1640.2,481.2,1641.4,481z"/>
	<path class="st2" d="M516.1,643.2c-12.7-5.7-25-9.8-38.2-10.1c-27.1-0.6-44.6,12.4-50,39c-5,24.6-4.8,49.8-0.2,74.5
		c6.1,32.7,30.7,41.8,58.9,37.9c9.3-1.3,17.8-5.3,26.1-9.6c1.7-0.9,3.5-1.8,5.9-3c0.5,9.3,0.9,18,1.4,26.7c0.1,2.5-2,2.8-3.6,3.6
		c-23.6,12.1-48.3,14-73.8,8c-20.1-4.7-33.6-17.5-41.5-36.3c-3.2-7.6-5.3-15.4-6.5-23.5c-4.1-28.5-4.6-57.1,1.4-85.4
		c4.7-21.9,14.8-40.3,35.7-50.9c15.4-7.8,32.1-9.5,49.1-8.5c11.4,0.7,22.3,3.4,32.9,7.6c3.1,1.2,4.5,2.5,4.2,6.1
		C517.1,626.9,516.7,634.7,516.1,643.2z"/>
	<path class="st2" d="M1012.6,772c0.5,8.9,0.8,17.4,1.4,25.8c0.2,2.7-1.6,3.3-3.4,4.3c-10.7,5.7-22.1,9.3-34.1,10.5
		c-14.1,1.4-28.3,1.2-42.1-2.9c-22.7-6.7-35.9-22.5-42.4-44.6c-7.4-25.2-7-51-5.5-76.8c0.7-11.7,2.8-23.1,6.5-34.2
		c9.5-28.6,29.6-44.1,59.2-47.9c19-2.4,37.5-0.3,55.4,6.8c3.2,1.3,4.8,2.7,4.4,6.4c-0.8,7.7-1.2,15.5-1.8,23.7
		c-10.6-4.4-20.6-8-31.5-9.4c-30-3.8-51,9.7-56.9,39.2c-4.9,24.4-4.7,49.5,0,74c6.1,32.3,30.8,41.7,59.1,37.6
		c10.2-1.5,19.3-6,28.3-10.8C1010.1,773.1,1011.2,772.7,1012.6,772z"/>
	<path class="st5" d="M1535.7,808.8c-36.3,0-72.3,0-108.6,0c0-66.5,0-132.7,0-199.2c10.7,0,21.1,0,31.4,0c1.2,2.1,0.7,4.2,0.7,6.1
		c0,53.3,0.1,106.6-0.1,159.9c0,5.3,1.6,6.3,6.5,6.2c21.8-0.2,43.6,0,65.5,0.1c1.5,0,2.9,0,4.7,0
		C1535.7,791.1,1535.7,799.8,1535.7,808.8z"/>
	<path class="st2" d="M1325.5,517.6c-10.7,0-21.3,0-32.2,0c0-66.4,0-132.6,0-199.2c10.6,0,21.2,0,32.2,0
		C1325.5,384.5,1325.5,450.7,1325.5,517.6z"/>
	<path class="st1" d="M1456.1,24.9c24.4,0,47.8,0,71.5,0c0,43.9,0,87.6,0,132.9C1503.5,112.9,1480,69.3,1456.1,24.9z"/>
	<path class="st6" d="M193,280.4c0-10.6,8.8-19.3,19.5-19.3c10.6,0.1,19.5,9.1,19.4,19.5c-0.1,10.6-9,19.3-19.6,19.3
		C201.6,299.9,193,291.1,193,280.4z"/>
	<path class="st6" d="M300,280.2c0.1,10.7-8.5,19.5-19.1,19.7c-10.6,0.2-19.5-8.5-19.8-19.1c-0.2-10.5,8.5-19.5,19.2-19.7
		C290.9,261,299.9,269.7,300,280.2z"/>
</g>
</svg>
