<?xml version="1.0" encoding="utf-8"?>
<!-- Generator: Adobe Illustrator 19.2.1, SVG Export Plug-In . SVG Version: 6.00 Build 0)  -->
<svg version="1.1" id="Ebene_1" xmlns="http://www.w3.org/2000/svg" xmlns:xlink="http://www.w3.org/1999/xlink" x="0px" y="0px"
	 viewBox="0 0 10 54" style="enable-background:new 0 0 10 54;" xml:space="preserve">
<style type="text/css">
	.st0{fill:#FFFFFF;}
</style>
<path class="st0" d="M5.7,30.8c0.5-0.4,0.9-0.7,0.9-1.1c-0.1-1.4-4.9-2.8-4.9-4.2s4.8-2.8,4.8-4.2s-4.8-2.8-4.8-4.2s4.8-2.8,4.8-4.2
	c0-1.4-4.8-2.8-4.8-4.2c0-1.4,4.8-2.8,4.8-4.2c0-1.5-4.8-2.9-4.8-4.2c0-0.6,0.9-1.3,2-1.9h0.7C5.9-2.1,11-2.6,11-2
	c0,1.4-0.9,5.9-0.9,7.3c0,1.4,1.2,3.7,1.2,5.1c0,1.4,0.3,3.1,0.3,4.5c0,1.4-0.8,2.5-0.8,3.8c0,1.4,0.8,3.1,0.8,4.5
	c0,1.4-1.7,1.4-1.7,2.8c0,1.4-2.5,2.2-2.5,3.5c0,0.4-0.4,0.8-0.9,1.1H5.7z"/>
<path class="st0" d="M5.7,56.2c0.5-0.4,0.9-0.7,0.9-1.1c-0.1-1.4-4.9-2.8-4.9-4.2s4.8-2.8,4.8-4.2s-4.8-2.8-4.8-4.2s4.8-2.8,4.8-4.2
	c0-1.4-4.8-2.8-4.8-4.2c0-1.4,4.8-2.8,4.8-4.2c0-1.5-4.8-2.9-4.8-4.2c0-0.6,0.9-1.3,2-1.9h0.7c1.5-0.5,6.5-1,6.5-0.3
	c0,1.4-0.9,5.9-0.9,7.3c0,1.4,1.2,3.7,1.2,5.1c0,1.4,0.3,3.1,0.3,4.5c0,1.4-0.8,2.5-0.8,3.8s0.8,3.1,0.8,4.5c0,1.4-0.3,3.9-0.3,5.2
	c0,1.4-3.9-0.3-3.9,1.1c0,0.4-0.4,0.8-0.9,1.1H5.7z"/>
</svg>
