<?xml version="1.0" encoding="utf-8"?>
<!-- Generator: Adobe Illustrator 19.2.1, SVG Export Plug-In . SVG Version: 6.00 Build 0)  -->
<svg version="1.1" id="Ebene_1" xmlns="http://www.w3.org/2000/svg" xmlns:xlink="http://www.w3.org/1999/xlink" x="0px" y="0px"
	 viewBox="0 0 10 54" style="enable-background:new 0 0 10 54;" xml:space="preserve">
<style type="text/css">
	.st0{fill:#FFFFFF;}
</style>
<path class="st0" d="M5.5,65.8c0.7-0.8,1.2-1.5,1.2-2.3C6.6,60.7,0,57.8,0,55c0-2.8,6.6-5.7,6.6-8.5c0-2.8-6.6-5.7-6.6-8.5
	c0-2.8,6.6-5.7,6.6-8.5c0-2.9-6.6-5.7-6.6-8.5c0-2.9,6.6-5.7,6.6-8.5C6.6,9.5,0,6.7,0,3.9C0,2.6,1.3,1.3,2.8,0h1c2-1,9-2,9-0.6
	c0,2.8-1.3,11.9-1.3,14.8c0,2.8,1.7,7.5,1.7,10.4c0,2.8,0.4,6.2,0.4,9.1c0,2.8-1.1,5-1.1,7.8c0,2.8,1.1,6.3,1.1,9.1
	c0,2.9-2.4,2.9-2.4,5.7c0,2.9-3.5,4.4-3.5,7.2c0,0.8-0.5,1.6-1.2,2.3H5.5z"/>
</svg>
