<?xml version="1.0" encoding="utf-8"?>
<!-- Generator: Adobe Illustrator 19.2.1, SVG Export Plug-In . SVG Version: 6.00 Build 0)  -->
<svg version="1.1" id="Ebene_1" xmlns="http://www.w3.org/2000/svg" xmlns:xlink="http://www.w3.org/1999/xlink" x="0px" y="0px"
	 viewBox="0 0 189 259" style="enable-background:new 0 0 189 259;" xml:space="preserve">
<style type="text/css">
	.st0{fill:#FFFFFF;}
</style>
<g>
	<g id="T_1_">
		<path class="st0" d="M152.7,259.2H82.3c0,0,0,0,0,0l-1.5-0.1C32.4,254.7,0,218.3,0.3,168.8l0-135.2C0.3,15.6,15,0.4,33,0.8
			c17.4,0.4,31.3,14.5,31.3,32V80c0,0,0,0,0,0l92.9,0.9c17.7,0.2,31.9,14.6,31.7,32.3c-0.2,17.6-14.5,31.7-32,31.7
			c-0.1,0-0.2,0-0.3,0L64.3,144c0,0,0,0,0,0v24.9c-0.1,22.7,14.1,25.6,21,26.3c0,0,0,0,0,0h68.2c17.5,0,31.6,13.9,32,31.3
			C185.9,244.5,170.7,259.2,152.7,259.2z"/>
	</g>
</g>
</svg>
